<mxfile host="app.diagrams.net" agent="Mozilla/5.0 (Windows NT 10.0; Win64; x64) AppleWebKit/537.36 (KHTML, like Gecko) Chrome/131.0.0.0 Safari/537.36" version="24.9.0">
  <diagram name="Page-1" id="d7p9Oa-sKtSY6JDpaFRf">
    <mxGraphModel dx="965" dy="510" grid="1" gridSize="10" guides="1" tooltips="1" connect="1" arrows="1" fold="1" page="1" pageScale="1" pageWidth="850" pageHeight="1100" math="0" shadow="0">
      <root>
        <mxCell id="0" />
        <mxCell id="1" parent="0" />
        <mxCell id="dJwLUKN1fIgPqBi0CFWI-2" value="" style="edgeStyle=orthogonalEdgeStyle;rounded=0;orthogonalLoop=1;jettySize=auto;html=1;" edge="1" parent="1" source="bTPJ0XPaTUNqhLl3BBbu-1" target="dJwLUKN1fIgPqBi0CFWI-1">
          <mxGeometry relative="1" as="geometry" />
        </mxCell>
        <mxCell id="bTPJ0XPaTUNqhLl3BBbu-1" value="start" style="rounded=1;whiteSpace=wrap;html=1;" parent="1" vertex="1">
          <mxGeometry x="350" y="60" width="130" height="70" as="geometry" />
        </mxCell>
        <mxCell id="bTPJ0XPaTUNqhLl3BBbu-9" value="" style="edgeStyle=orthogonalEdgeStyle;rounded=0;orthogonalLoop=1;jettySize=auto;html=1;" parent="1" source="bTPJ0XPaTUNqhLl3BBbu-3" target="bTPJ0XPaTUNqhLl3BBbu-5" edge="1">
          <mxGeometry relative="1" as="geometry" />
        </mxCell>
        <mxCell id="bTPJ0XPaTUNqhLl3BBbu-3" value="Hello, I&#39;m Javis (RMUTL-Version)." style="shape=parallelogram;perimeter=parallelogramPerimeter;whiteSpace=wrap;html=1;fixedSize=1;" parent="1" vertex="1">
          <mxGeometry x="350" y="270" width="130" height="70" as="geometry" />
        </mxCell>
        <mxCell id="bTPJ0XPaTUNqhLl3BBbu-10" value="" style="edgeStyle=orthogonalEdgeStyle;rounded=0;orthogonalLoop=1;jettySize=auto;html=1;" parent="1" source="bTPJ0XPaTUNqhLl3BBbu-5" target="bTPJ0XPaTUNqhLl3BBbu-7" edge="1">
          <mxGeometry relative="1" as="geometry" />
        </mxCell>
        <mxCell id="bTPJ0XPaTUNqhLl3BBbu-5" value="This is my first time to coding with C language." style="shape=parallelogram;perimeter=parallelogramPerimeter;whiteSpace=wrap;html=1;fixedSize=1;" parent="1" vertex="1">
          <mxGeometry x="350" y="370" width="130" height="70" as="geometry" />
        </mxCell>
        <mxCell id="bTPJ0XPaTUNqhLl3BBbu-12" value="" style="edgeStyle=orthogonalEdgeStyle;rounded=0;orthogonalLoop=1;jettySize=auto;html=1;" parent="1" source="bTPJ0XPaTUNqhLl3BBbu-7" target="bTPJ0XPaTUNqhLl3BBbu-11" edge="1">
          <mxGeometry relative="1" as="geometry" />
        </mxCell>
        <mxCell id="bTPJ0XPaTUNqhLl3BBbu-7" value="Today is my birthday." style="shape=parallelogram;perimeter=parallelogramPerimeter;whiteSpace=wrap;html=1;fixedSize=1;" parent="1" vertex="1">
          <mxGeometry x="350" y="470" width="130" height="70" as="geometry" />
        </mxCell>
        <mxCell id="bTPJ0XPaTUNqhLl3BBbu-11" value="end" style="rounded=1;whiteSpace=wrap;html=1;" parent="1" vertex="1">
          <mxGeometry x="350" y="570" width="130" height="70" as="geometry" />
        </mxCell>
        <mxCell id="dJwLUKN1fIgPqBi0CFWI-3" value="" style="edgeStyle=orthogonalEdgeStyle;rounded=0;orthogonalLoop=1;jettySize=auto;html=1;" edge="1" parent="1" source="dJwLUKN1fIgPqBi0CFWI-1" target="bTPJ0XPaTUNqhLl3BBbu-3">
          <mxGeometry relative="1" as="geometry" />
        </mxCell>
        <mxCell id="dJwLUKN1fIgPqBi0CFWI-1" value="เขียน flowchart ที่เราทำการแก้ไข" style="rounded=0;whiteSpace=wrap;html=1;" vertex="1" parent="1">
          <mxGeometry x="355" y="170" width="120" height="60" as="geometry" />
        </mxCell>
      </root>
    </mxGraphModel>
  </diagram>
</mxfile>
